# xmcd CD database file
#
# Track frame offsets:
#	150
#	21635
#	41473
#
# Disc length: 837 seconds
#
# Revision: 0
# Processed by: cddbd v1.5PL3 Copyright (c) Steve Scherf et al.
# Submitted via: CDex 1.50
#
DISCID=20034303
DTITLE=未来 -MIKU- - HANABI 〜８月の日〜
DYEAR=2003
DGENRE=Japanese Pop
TTITLE0=HANABI 〜８月の日〜
TTITLE1=この星のどこかで 〜二人の未来〜
TTITLE2=HANABI 〜８月の日〜 (instrumental)
EXTD=YEAR: 2003
EXTT0=
EXTT1=
EXTT2=
PLAYORDER=
